<svg width="150" height="33" viewBox="0 0 150 33" fill="none" xmlns="http://www.w3.org/2000/svg">
<g clip-path="url(#clip0_189_569)">
<path d="M67.8804 32.3918C67.8804 32.3918 69.401 30.9519 69.701 30.656C70.2285 30.1368 69.8706 30.5857 72.4732 27.9066C73.0711 27.2921 73.8634 26.4584 74.7841 25.4426L74.0972 24.6399C72.6035 23.0614 70.9919 21.5925 69.5086 20.0036C67.0942 17.4238 67.1604 14.5771 69.643 12.049C71.0622 10.6049 72.5001 9.1795 73.969 7.78511L74.031 5.69766C72.2332 4.11707 70.605 2.34202 68.8817 0.67454L67.508 0.509033C66.9494 1.05107 66.3888 1.5931 65.8302 2.1372C63.5317 4.36533 61.1319 6.35555 59.6423 9.24364C56.9197 14.5171 57.8176 20.8891 61.3181 25.5729C62.9421 27.7431 64.9964 29.5658 66.9225 31.4567" fill="#4218FF"/>
<path d="M45.2738 32.3918C45.2738 32.3918 43.7532 30.9519 43.4532 30.656C42.9257 30.1368 43.2836 30.5857 40.681 27.9066C40.0831 27.2921 39.2907 26.4584 38.3701 25.4426L39.057 24.6399C40.5507 23.0614 42.1623 21.5925 43.6456 20.0036C46.06 17.4238 45.9938 14.5771 43.5112 12.049C42.0919 10.6049 40.6541 9.1795 39.1852 7.78511L39.1232 5.69766C40.921 4.11707 42.5492 2.34202 44.2725 0.67454L45.6462 0.509033C46.2048 1.05107 46.7654 1.5931 47.324 2.1372C49.6225 4.36533 52.0223 6.35555 53.5119 9.24364C56.2345 14.5171 55.3366 20.8891 51.8361 25.5729C50.2121 27.7431 48.1578 29.5658 46.2317 31.4567" fill="#4218FF"/>
<path d="M74.0265 5.79944L75.034 6.80696L73.9644 7.88689L73.5134 6.74489L74.0265 5.79944Z" fill="#4218FF"/>
<path d="M67.5017 0.610549L68.1141 0.000244141L68.8837 0.769849L67.6941 0.947769L67.5017 0.610549Z" fill="#4218FF"/>
<path d="M12.5744 6.80848C11.7551 6.80848 11 6.96157 10.3048 7.26776C9.60972 7.57395 9.00562 7.99392 8.49462 8.52561C7.98362 9.0573 7.57399 9.68208 7.2678 10.3958C6.96162 11.1116 6.80852 11.8585 6.80852 12.6343V13.677H18.2781V20.4855H6.87059V32.5075H0V12.7584C0 11.0413 0.326875 9.4152 0.980626 7.8822C1.63438 6.3492 2.53432 5.01066 3.67838 3.86453C4.82244 2.72047 6.16305 1.82053 7.69605 1.16471C9.23112 0.513026 10.8572 0.184082 12.5744 0.184082H21.2221V6.80848H12.5744Z" fill="black"/>
<path d="M119.632 32.5929H113.701V19.0193C113.701 16.7043 112.898 14.7099 111.297 13.0342C109.693 11.3233 108.769 10.4688 106.454 10.4688C104.139 10.4688 102.196 11.7205 100.522 13.3942C98.919 15.1051 98.1183 17.0994 98.1183 19.3793V32.5908H92.187V0.101929H98.1183V9.8606C99.0079 8.72688 101.251 5.85535 106.454 5.53261C110.364 5.29056 112.685 6.28359 115.465 9.02686C118.244 11.8053 119.634 15.1361 119.634 19.0193V32.5929H119.632Z" fill="black"/>
<path d="M26.187 0.0291748H33.4072V5.48882H26.187V0.0291748ZM33.4072 32.6629V8.18864H26.187V32.665H33.4072V32.6629Z" fill="black"/>
<path d="M79.9993 0.0291748H87.2195V5.48882H79.9993V0.0291748ZM87.2195 32.6629V8.18864H79.9993V32.665H87.2195V32.6629Z" fill="black"/>
<path d="M149.951 32.5655H145.085V28.7237C143.407 31.3676 140.773 32.9979 136.729 32.9979C129.639 32.9979 124.595 26.9879 124.595 19.3043C124.595 11.6207 129.622 5.48657 136.729 5.48657C140.773 5.48657 143.405 7.09819 145.085 9.82491V5.98516H149.951V32.5655ZM145.087 17.8189C144.462 13.7619 141.673 10.6318 137.418 10.6318C132.736 10.6318 129.748 14.6246 129.748 19.3064C129.748 23.9881 132.858 27.7948 137.418 27.7948C141.63 27.7948 144.454 24.7929 145.087 20.8559V17.8189Z" fill="black"/>
</g>
<defs>
<clipPath id="clip0_189_569">
<rect width="149.951" height="32.9999" fill="white"/>
</clipPath>
</defs>
</svg>
